<?xml version="1.0" encoding="utf-8"?>
<!-- Generator: Adobe Illustrator 21.1.0, SVG Export Plug-In . SVG Version: 6.00 Build 0)  -->
<svg version="1.1" id="Layer_1" xmlns="http://www.w3.org/2000/svg" xmlns:xlink="http://www.w3.org/1999/xlink" x="0px" y="0px"
	 viewBox="0 0 399 166" style="enable-background:new 0 0 399 166;" xml:space="preserve">
<style type="text/css">
	.st0{fill:none;stroke:#F7931E;stroke-width:7;stroke-miterlimit:10;}
	.st1{fill:#1B1464;}
	.st2{font-family:'Impact';}
	.st3{font-size:48px;}
	.st4{font-family:'Avenir-Roman';}
	.st5{font-size:30px;}
</style>
<path class="st0" d="M226,13c90.2,5,159,31.1,159,62.6c0,35-85.2,63.4-190.4,63.4c-28.9,0-56.2-2.1-80.7-6"/>
<path class="st1" d="M69.8,112.3c-0.6-0.8-2-1-2.8-0.4l-49.2,37.5c-0.8,0.6-1,2-0.4,2.8c0.4,0.6,1,0.8,1.6,0.8
	c0.4,0,0.8-0.2,1.2-0.4l49.2-37.5C70.2,114.5,70.4,113.1,69.8,112.3z"/>
<path class="st1" d="M43,146.8c0.4,0.6,1,0.8,1.6,0.8c0.4,0,0.8-0.2,1.2-0.4l30.2-23c0.8-0.6,1-2,0.4-2.8c-0.6-0.8-2-1-2.8-0.4
	l-30.4,23C42.4,144.9,42.2,146.1,43,146.8z"/>
<path class="st1" d="M60.3,104l-23.6,17.9c-0.8,0.6-1,2-0.4,2.8c0.4,0.6,1,0.8,1.6,0.8c0.4,0,0.8-0.2,1.2-0.4l23.6-17.9
	c0.8-0.6,1-2,0.4-2.8S61.1,103.4,60.3,104z"/>
<text transform="matrix(1 0 0 1 79.4092 73.5908)"><tspan x="0" y="0" class="st1 st2 st3">Eagle Tours</tspan><tspan x="0" y="36" class="st1 st4 st5">WORLD TRAVEL</tspan></text>
</svg>
